<mxfile host="Electron" modified="2024-05-22T14:08:07.154Z" agent="Mozilla/5.0 (Windows NT 10.0; Win64; x64) AppleWebKit/537.36 (KHTML, like Gecko) draw.io/22.1.18 Chrome/120.0.6099.199 Electron/28.1.2 Safari/537.36" etag="OWSJvi5fuSy6bIXwfbl_" version="22.1.18" type="device">
  <diagram name="Страница — 1" id="_4MvVw3KKj5exvqmvUYM">
    <mxGraphModel dx="863" dy="866" grid="1" gridSize="10" guides="1" tooltips="1" connect="1" arrows="1" fold="1" page="1" pageScale="1" pageWidth="827" pageHeight="1169" math="0" shadow="0">
      <root>
        <mxCell id="0" />
        <mxCell id="1" parent="0" />
        <mxCell id="G3fRUlENnkWAYz1zaMVZ-1" value="Приложение" style="rounded=0;whiteSpace=wrap;html=1;" vertex="1" parent="1">
          <mxGeometry x="313" y="50" width="120" height="60" as="geometry" />
        </mxCell>
        <mxCell id="G3fRUlENnkWAYz1zaMVZ-2" value="Пользователь" style="shape=umlActor;verticalLabelPosition=bottom;verticalAlign=top;html=1;outlineConnect=0;" vertex="1" parent="1">
          <mxGeometry x="100" y="50" width="30" height="60" as="geometry" />
        </mxCell>
        <mxCell id="G3fRUlENnkWAYz1zaMVZ-3" value="Сервер" style="rounded=0;whiteSpace=wrap;html=1;" vertex="1" parent="1">
          <mxGeometry x="570" y="50" width="120" height="60" as="geometry" />
        </mxCell>
        <mxCell id="G3fRUlENnkWAYz1zaMVZ-4" value="" style="endArrow=none;html=1;rounded=0;entryX=0.5;entryY=1;entryDx=0;entryDy=0;" edge="1" parent="1" target="G3fRUlENnkWAYz1zaMVZ-3">
          <mxGeometry width="50" height="50" relative="1" as="geometry">
            <mxPoint x="630" y="150" as="sourcePoint" />
            <mxPoint x="450" y="300" as="targetPoint" />
          </mxGeometry>
        </mxCell>
        <mxCell id="G3fRUlENnkWAYz1zaMVZ-11" value="" style="endArrow=none;html=1;rounded=0;entryX=0.5;entryY=0.5;entryDx=0;entryDy=0;entryPerimeter=0;" edge="1" parent="1" source="G3fRUlENnkWAYz1zaMVZ-18" target="G3fRUlENnkWAYz1zaMVZ-2">
          <mxGeometry width="50" height="50" relative="1" as="geometry">
            <mxPoint x="115" y="1150" as="sourcePoint" />
            <mxPoint x="310" y="200" as="targetPoint" />
          </mxGeometry>
        </mxCell>
        <mxCell id="G3fRUlENnkWAYz1zaMVZ-12" value="" style="endArrow=none;html=1;rounded=0;entryX=0.5;entryY=1;entryDx=0;entryDy=0;" edge="1" parent="1" source="G3fRUlENnkWAYz1zaMVZ-21" target="G3fRUlENnkWAYz1zaMVZ-1">
          <mxGeometry width="50" height="50" relative="1" as="geometry">
            <mxPoint x="373" y="1150" as="sourcePoint" />
            <mxPoint x="125" y="90" as="targetPoint" />
          </mxGeometry>
        </mxCell>
        <mxCell id="G3fRUlENnkWAYz1zaMVZ-13" value="" style="endArrow=none;html=1;rounded=0;entryX=0.5;entryY=1;entryDx=0;entryDy=0;" edge="1" parent="1" target="G3fRUlENnkWAYz1zaMVZ-3">
          <mxGeometry width="50" height="50" relative="1" as="geometry">
            <mxPoint x="630" y="1160" as="sourcePoint" />
            <mxPoint x="383" y="120" as="targetPoint" />
          </mxGeometry>
        </mxCell>
        <mxCell id="G3fRUlENnkWAYz1zaMVZ-15" style="edgeStyle=orthogonalEdgeStyle;rounded=0;orthogonalLoop=1;jettySize=auto;html=1;" edge="1" parent="1" source="G3fRUlENnkWAYz1zaMVZ-17">
          <mxGeometry relative="1" as="geometry">
            <mxPoint x="652.0000000000001" y="216" as="targetPoint" />
          </mxGeometry>
        </mxCell>
        <mxCell id="G3fRUlENnkWAYz1zaMVZ-16" value="получает&amp;nbsp; информацию &lt;br&gt;о курсах валют" style="edgeLabel;html=1;align=center;verticalAlign=middle;resizable=0;points=[];" vertex="1" connectable="0" parent="G3fRUlENnkWAYz1zaMVZ-15">
          <mxGeometry x="0.1248" y="2" relative="1" as="geometry">
            <mxPoint x="67" as="offset" />
          </mxGeometry>
        </mxCell>
        <mxCell id="G3fRUlENnkWAYz1zaMVZ-17" value="" style="rounded=0;whiteSpace=wrap;html=1;" vertex="1" parent="1">
          <mxGeometry x="620.75" y="156" width="22.5" height="80" as="geometry" />
        </mxCell>
        <mxCell id="G3fRUlENnkWAYz1zaMVZ-19" value="" style="endArrow=none;html=1;rounded=0;entryX=0.5;entryY=0.5;entryDx=0;entryDy=0;entryPerimeter=0;" edge="1" parent="1" source="G3fRUlENnkWAYz1zaMVZ-31" target="G3fRUlENnkWAYz1zaMVZ-18">
          <mxGeometry width="50" height="50" relative="1" as="geometry">
            <mxPoint x="115" y="1150" as="sourcePoint" />
            <mxPoint x="115" y="80" as="targetPoint" />
          </mxGeometry>
        </mxCell>
        <mxCell id="G3fRUlENnkWAYz1zaMVZ-25" style="edgeStyle=orthogonalEdgeStyle;rounded=0;orthogonalLoop=1;jettySize=auto;html=1;exitX=1;exitY=1;exitDx=0;exitDy=0;entryX=0;entryY=0;entryDx=0;entryDy=0;" edge="1" parent="1" source="G3fRUlENnkWAYz1zaMVZ-18" target="G3fRUlENnkWAYz1zaMVZ-21">
          <mxGeometry relative="1" as="geometry">
            <mxPoint x="310" y="210" as="targetPoint" />
            <Array as="points">
              <mxPoint x="340" y="260" />
              <mxPoint x="340" y="260" />
            </Array>
          </mxGeometry>
        </mxCell>
        <mxCell id="G3fRUlENnkWAYz1zaMVZ-26" value="авторизоваться" style="edgeLabel;html=1;align=center;verticalAlign=middle;resizable=0;points=[];" vertex="1" connectable="0" parent="G3fRUlENnkWAYz1zaMVZ-25">
          <mxGeometry x="-0.3118" y="2" relative="1" as="geometry">
            <mxPoint as="offset" />
          </mxGeometry>
        </mxCell>
        <mxCell id="G3fRUlENnkWAYz1zaMVZ-18" value="" style="rounded=0;whiteSpace=wrap;html=1;" vertex="1" parent="1">
          <mxGeometry x="103.75" y="180" width="22.5" height="80" as="geometry" />
        </mxCell>
        <mxCell id="G3fRUlENnkWAYz1zaMVZ-22" value="" style="endArrow=none;html=1;rounded=0;entryX=0.5;entryY=1;entryDx=0;entryDy=0;" edge="1" parent="1" target="G3fRUlENnkWAYz1zaMVZ-21">
          <mxGeometry width="50" height="50" relative="1" as="geometry">
            <mxPoint x="373" y="1150" as="sourcePoint" />
            <mxPoint x="373" y="110" as="targetPoint" />
          </mxGeometry>
        </mxCell>
        <mxCell id="G3fRUlENnkWAYz1zaMVZ-21" value="" style="rounded=0;whiteSpace=wrap;html=1;" vertex="1" parent="1">
          <mxGeometry x="361.75" y="260" width="22.5" height="30" as="geometry" />
        </mxCell>
        <mxCell id="G3fRUlENnkWAYz1zaMVZ-27" value="получить данные о пользователе" style="html=1;verticalAlign=bottom;endArrow=block;curved=0;rounded=0;exitX=1;exitY=0.25;exitDx=0;exitDy=0;entryX=-0.066;entryY=0.052;entryDx=0;entryDy=0;entryPerimeter=0;" edge="1" parent="1" source="G3fRUlENnkWAYz1zaMVZ-21" target="G3fRUlENnkWAYz1zaMVZ-28">
          <mxGeometry width="80" relative="1" as="geometry">
            <mxPoint x="420" y="280" as="sourcePoint" />
            <mxPoint x="630" y="270" as="targetPoint" />
          </mxGeometry>
        </mxCell>
        <mxCell id="G3fRUlENnkWAYz1zaMVZ-28" value="" style="rounded=0;whiteSpace=wrap;html=1;" vertex="1" parent="1">
          <mxGeometry x="620" y="267" width="22.5" height="10" as="geometry" />
        </mxCell>
        <mxCell id="G3fRUlENnkWAYz1zaMVZ-30" value="return" style="html=1;verticalAlign=bottom;endArrow=open;dashed=1;endSize=8;curved=0;rounded=0;exitX=0;exitY=1;exitDx=0;exitDy=0;entryX=1;entryY=0.5;entryDx=0;entryDy=0;" edge="1" parent="1" source="G3fRUlENnkWAYz1zaMVZ-28" target="G3fRUlENnkWAYz1zaMVZ-21">
          <mxGeometry relative="1" as="geometry">
            <mxPoint x="510" y="280" as="sourcePoint" />
            <mxPoint x="400" y="280" as="targetPoint" />
          </mxGeometry>
        </mxCell>
        <mxCell id="G3fRUlENnkWAYz1zaMVZ-32" value="" style="endArrow=none;html=1;rounded=0;entryX=0.5;entryY=0.5;entryDx=0;entryDy=0;entryPerimeter=0;" edge="1" parent="1" source="G3fRUlENnkWAYz1zaMVZ-37" target="G3fRUlENnkWAYz1zaMVZ-31">
          <mxGeometry width="50" height="50" relative="1" as="geometry">
            <mxPoint x="115" y="1150" as="sourcePoint" />
            <mxPoint x="115" y="220" as="targetPoint" />
          </mxGeometry>
        </mxCell>
        <mxCell id="G3fRUlENnkWAYz1zaMVZ-31" value="" style="rounded=0;whiteSpace=wrap;html=1;" vertex="1" parent="1">
          <mxGeometry x="103.75" y="280" width="22.5" height="70" as="geometry" />
        </mxCell>
        <mxCell id="G3fRUlENnkWAYz1zaMVZ-33" value="return" style="html=1;verticalAlign=bottom;endArrow=open;dashed=1;endSize=8;curved=0;rounded=0;exitX=0;exitY=1;exitDx=0;exitDy=0;entryX=1.097;entryY=0.104;entryDx=0;entryDy=0;entryPerimeter=0;" edge="1" parent="1" source="G3fRUlENnkWAYz1zaMVZ-21" target="G3fRUlENnkWAYz1zaMVZ-31">
          <mxGeometry relative="1" as="geometry">
            <mxPoint x="330" y="380" as="sourcePoint" />
            <mxPoint x="250" y="380" as="targetPoint" />
          </mxGeometry>
        </mxCell>
        <mxCell id="G3fRUlENnkWAYz1zaMVZ-36" value="" style="rounded=0;whiteSpace=wrap;html=1;" vertex="1" parent="1">
          <mxGeometry x="361.75" y="344" width="22.5" height="30" as="geometry" />
        </mxCell>
        <mxCell id="G3fRUlENnkWAYz1zaMVZ-38" value="" style="endArrow=none;html=1;rounded=0;entryX=0.5;entryY=0.5;entryDx=0;entryDy=0;entryPerimeter=0;" edge="1" parent="1" target="G3fRUlENnkWAYz1zaMVZ-37">
          <mxGeometry width="50" height="50" relative="1" as="geometry">
            <mxPoint x="115" y="1150" as="sourcePoint" />
            <mxPoint x="115" y="315" as="targetPoint" />
          </mxGeometry>
        </mxCell>
        <mxCell id="G3fRUlENnkWAYz1zaMVZ-37" value="" style="rounded=0;whiteSpace=wrap;html=1;" vertex="1" parent="1">
          <mxGeometry x="103.75" y="370" width="22.5" height="70" as="geometry" />
        </mxCell>
        <mxCell id="G3fRUlENnkWAYz1zaMVZ-39" value="рассчитать стоимость других валют" style="html=1;verticalAlign=bottom;endArrow=block;curved=0;rounded=0;exitX=1;exitY=1;exitDx=0;exitDy=0;entryX=0;entryY=0.25;entryDx=0;entryDy=0;" edge="1" parent="1" source="G3fRUlENnkWAYz1zaMVZ-31" target="G3fRUlENnkWAYz1zaMVZ-36">
          <mxGeometry width="80" relative="1" as="geometry">
            <mxPoint x="260" y="410" as="sourcePoint" />
            <mxPoint x="360" y="350" as="targetPoint" />
          </mxGeometry>
        </mxCell>
        <mxCell id="G3fRUlENnkWAYz1zaMVZ-42" value="return" style="html=1;verticalAlign=bottom;endArrow=open;dashed=1;endSize=8;curved=0;rounded=0;exitX=0;exitY=1;exitDx=0;exitDy=0;" edge="1" parent="1" source="G3fRUlENnkWAYz1zaMVZ-36">
          <mxGeometry relative="1" as="geometry">
            <mxPoint x="340" y="410" as="sourcePoint" />
            <mxPoint x="130" y="374" as="targetPoint" />
          </mxGeometry>
        </mxCell>
      </root>
    </mxGraphModel>
  </diagram>
</mxfile>
